<svg width="612" height="465" viewBox="0 0 612 465" fill="none" xmlns="http://www.w3.org/2000/svg">
<path d="M604.131 366.304H585.011V259.371C585.011 246.859 581.235 234.584 574.231 224.198L526.311 153.223C514.586 135.912 495.073 125.525 474.142 125.525H399.862C391.128 125.525 384.125 132.607 384.125 141.263V366.306H262.475C274.042 376.298 281.989 390.226 284.271 405.964H412.53C417.093 374.726 444.005 350.568 476.502 350.568C509 350.568 535.832 374.726 540.397 405.964H604.132C608.46 405.964 612.001 402.423 612.001 398.095V374.174C612 369.847 608.46 366.304 604.131 366.304ZM525.76 238.361H427.716C423.389 238.361 419.848 234.898 419.848 230.492V176.12C419.848 171.792 423.389 168.251 427.716 168.251H487.44C490.037 168.251 492.397 169.51 493.892 171.556L532.212 226.007C535.831 231.201 532.133 238.361 525.76 238.361ZM476.502 366.304C449.434 366.304 427.559 388.257 427.559 415.325C427.559 442.315 449.434 464.268 476.502 464.268C503.491 464.268 525.445 442.315 525.445 415.325C525.445 388.259 503.491 366.304 476.502 366.304ZM476.502 439.799C462.967 439.799 452.03 428.783 452.03 415.328C452.03 401.793 462.967 390.855 476.502 390.855C490.035 390.855 500.974 401.793 500.974 415.328C500.974 428.783 490.036 439.799 476.502 439.799ZM68.434 366.304C64.106 366.304 60.565 369.847 60.565 374.173V398.095C60.565 402.423 64.106 405.964 68.434 405.964H156.405C158.687 390.226 166.634 376.298 178.123 366.306H68.434V366.304ZM220.298 366.304C193.309 366.304 171.355 388.257 171.355 415.325C171.355 442.315 193.309 464.268 220.298 464.268C247.366 464.268 269.241 442.315 269.241 415.325C269.242 388.259 247.367 366.304 220.298 366.304ZM220.298 439.799C206.764 439.799 195.827 428.783 195.827 415.328C195.827 401.793 206.764 390.855 220.298 390.855C233.832 390.855 244.77 401.793 244.77 415.328C244.77 428.783 233.832 439.799 220.298 439.799ZM338.014 76.739H246.816C251.301 90.037 253.662 104.279 253.662 118.994C253.662 193.274 193.231 253.705 118.951 253.705C105.416 253.705 92.276 251.66 79.922 247.961V334.91C79.922 339.238 83.463 342.779 87.791 342.779H353.751C358.08 342.779 361.62 339.238 361.62 334.91V100.345C361.619 87.283 351.075 76.739 338.014 76.739ZM118.969 0C53.264 0 0 53.263 0 118.968C0 184.673 53.264 237.937 118.969 237.937C184.674 237.937 237.939 184.673 237.939 118.968C237.939 53.263 184.674 0 118.969 0ZM118.969 210.864C68.217 210.864 27.073 169.721 27.073 118.968C27.073 68.215 68.217 27.072 118.969 27.072C169.722 27.072 210.865 68.216 210.865 118.968C210.865 169.721 169.722 210.864 118.969 210.864ZM154.066 138.376C153.052 138.376 152.014 138.245 150.984 137.969L112.641 127.634C107.493 126.243 103.912 121.572 103.912 116.238V57.223C103.912 50.707 109.199 45.42 115.715 45.42C122.231 45.42 127.518 50.707 127.518 57.223V107.194L157.132 115.177C163.426 116.875 167.152 123.354 165.454 129.646C164.033 134.91 159.269 138.376 154.066 138.376Z" fill="url(#paint0_linear_11_9)"/>
<defs>
<linearGradient id="paint0_linear_11_9" x1="306" y1="0" x2="306" y2="464.268" gradientUnits="userSpaceOnUse">
<stop stop-color="#121214" stop-opacity="0.1"/>
<stop offset="1" stop-color="#121214" stop-opacity="0"/>
</linearGradient>
</defs>
</svg>
