<svg width="317" height="56" viewBox="0 0 317 56" fill="none" xmlns="http://www.w3.org/2000/svg">
<path d="M1.5 19H21L22.5 22H3L1.5 19ZM3.5 25H23L24.5 28H5L3.5 25ZM36 41C37.66 41 39 39.66 39 38C39 36.34 37.66 35 36 35C34.34 35 33 36.34 33 38C33 39.66 34.34 41 36 41ZM39 23H34V28H42.92L39 23ZM16 41C17.66 41 19 39.66 19 38C19 36.34 17.66 35 16 35C14.34 35 13 36.34 13 38C13 39.66 14.34 41 16 41ZM40 20L46 28V38H42C42 41.32 39.32 44 36 44C32.68 44 30 41.32 30 38H22C22 41.32 19.3 44 16 44C12.68 44 10 41.32 10 38H6V31H10V34H11.52C12.62 32.78 14.22 32 16 32C17.78 32 19.38 32.78 20.48 34H30V16H6C6 13.78 7.78 12 10 12H34V20H40Z" fill="#F7F5FA"/>
<path d="M85.5234 44H78.0938L78.1406 38.5156H85.5234C87.3672 38.5156 88.9219 38.1016 90.1875 37.2734C91.4531 36.4297 92.4062 35.2031 93.0469 33.5938C93.7031 31.9844 94.0312 30.0391 94.0312 27.7578V26.0938C94.0312 24.3438 93.8438 22.8047 93.4688 21.4766C93.1094 20.1484 92.5703 19.0312 91.8516 18.125C91.1328 17.2188 90.25 16.5391 89.2031 16.0859C88.1562 15.6172 86.9531 15.3828 85.5938 15.3828H77.9531V9.875H85.5938C87.875 9.875 89.9609 10.2656 91.8516 11.0469C93.7578 11.8125 95.4062 12.9141 96.7969 14.3516C98.1875 15.7891 99.2578 17.5078 100.008 19.5078C100.773 21.4922 101.156 23.7031 101.156 26.1406V27.7578C101.156 30.1797 100.773 32.3906 100.008 34.3906C99.2578 36.3906 98.1875 38.1094 96.7969 39.5469C95.4219 40.9688 93.7734 42.0703 91.8516 42.8516C89.9453 43.6172 87.8359 44 85.5234 44ZM82.0781 9.875V44H75.0469V9.875H82.0781ZM117.516 44.4688C115.547 44.4688 113.781 44.1562 112.219 43.5312C110.656 42.8906 109.328 42.0078 108.234 40.8828C107.156 39.7578 106.328 38.4531 105.75 36.9688C105.172 35.4688 104.883 33.875 104.883 32.1875V31.25C104.883 29.3281 105.156 27.5703 105.703 25.9766C106.25 24.3828 107.031 23 108.047 21.8281C109.078 20.6562 110.328 19.7578 111.797 19.1328C113.266 18.4922 114.922 18.1719 116.766 18.1719C118.562 18.1719 120.156 18.4688 121.547 19.0625C122.938 19.6562 124.102 20.5 125.039 21.5938C125.992 22.6875 126.711 24 127.195 25.5312C127.68 27.0469 127.922 28.7344 127.922 30.5938V33.4062H107.766V28.9062H121.289V28.3906C121.289 27.4531 121.117 26.6172 120.773 25.8828C120.445 25.1328 119.945 24.5391 119.273 24.1016C118.602 23.6641 117.742 23.4453 116.695 23.4453C115.805 23.4453 115.039 23.6406 114.398 24.0312C113.758 24.4219 113.234 24.9688 112.828 25.6719C112.438 26.375 112.141 27.2031 111.938 28.1562C111.75 29.0938 111.656 30.125 111.656 31.25V32.1875C111.656 33.2031 111.797 34.1406 112.078 35C112.375 35.8594 112.789 36.6016 113.32 37.2266C113.867 37.8516 114.523 38.3359 115.289 38.6797C116.07 39.0234 116.953 39.1953 117.938 39.1953C119.156 39.1953 120.289 38.9609 121.336 38.4922C122.398 38.0078 123.312 37.2812 124.078 36.3125L127.359 39.875C126.828 40.6406 126.102 41.375 125.18 42.0781C124.273 42.7812 123.18 43.3594 121.898 43.8125C120.617 44.25 119.156 44.4688 117.516 44.4688ZM138.891 8V44H132.117V8H138.891ZM151.594 18.6406V44H144.82V18.6406H151.594ZM144.398 12.0312C144.398 11.0469 144.742 10.2344 145.43 9.59375C146.117 8.95313 147.039 8.63281 148.195 8.63281C149.336 8.63281 150.25 8.95313 150.938 9.59375C151.641 10.2344 151.992 11.0469 151.992 12.0312C151.992 13.0156 151.641 13.8281 150.938 14.4688C150.25 15.1094 149.336 15.4297 148.195 15.4297C147.039 15.4297 146.117 15.1094 145.43 14.4688C144.742 13.8281 144.398 13.0156 144.398 12.0312ZM165.797 39.0781L171.422 18.6406H178.477L169.922 44H165.656L165.797 39.0781ZM161.93 18.6406L167.578 39.1016L167.695 44H163.406L154.852 18.6406H161.93ZM192.844 44.4688C190.875 44.4688 189.109 44.1562 187.547 43.5312C185.984 42.8906 184.656 42.0078 183.562 40.8828C182.484 39.7578 181.656 38.4531 181.078 36.9688C180.5 35.4688 180.211 33.875 180.211 32.1875V31.25C180.211 29.3281 180.484 27.5703 181.031 25.9766C181.578 24.3828 182.359 23 183.375 21.8281C184.406 20.6562 185.656 19.7578 187.125 19.1328C188.594 18.4922 190.25 18.1719 192.094 18.1719C193.891 18.1719 195.484 18.4688 196.875 19.0625C198.266 19.6562 199.43 20.5 200.367 21.5938C201.32 22.6875 202.039 24 202.523 25.5312C203.008 27.0469 203.25 28.7344 203.25 30.5938V33.4062H183.094V28.9062H196.617V28.3906C196.617 27.4531 196.445 26.6172 196.102 25.8828C195.773 25.1328 195.273 24.5391 194.602 24.1016C193.93 23.6641 193.07 23.4453 192.023 23.4453C191.133 23.4453 190.367 23.6406 189.727 24.0312C189.086 24.4219 188.562 24.9688 188.156 25.6719C187.766 26.375 187.469 27.2031 187.266 28.1562C187.078 29.0938 186.984 30.125 186.984 31.25V32.1875C186.984 33.2031 187.125 34.1406 187.406 35C187.703 35.8594 188.117 36.6016 188.648 37.2266C189.195 37.8516 189.852 38.3359 190.617 38.6797C191.398 39.0234 192.281 39.1953 193.266 39.1953C194.484 39.1953 195.617 38.9609 196.664 38.4922C197.727 38.0078 198.641 37.2812 199.406 36.3125L202.688 39.875C202.156 40.6406 201.43 41.375 200.508 42.0781C199.602 42.7812 198.508 43.3594 197.227 43.8125C195.945 44.25 194.484 44.4688 192.844 44.4688ZM213.844 24.1719V44H207.094V18.6406H213.445L213.844 24.1719ZM221.484 18.4766L221.367 24.7344C221.039 24.6875 220.641 24.6484 220.172 24.6172C219.719 24.5703 219.305 24.5469 218.93 24.5469C217.977 24.5469 217.148 24.6719 216.445 24.9219C215.758 25.1562 215.18 25.5078 214.711 25.9766C214.258 26.4453 213.914 27.0156 213.68 27.6875C213.461 28.3594 213.336 29.125 213.305 29.9844L211.945 29.5625C211.945 27.9219 212.109 26.4141 212.438 25.0391C212.766 23.6484 213.242 22.4375 213.867 21.4062C214.508 20.375 215.289 19.5781 216.211 19.0156C217.133 18.4531 218.188 18.1719 219.375 18.1719C219.75 18.1719 220.133 18.2031 220.523 18.2656C220.914 18.3125 221.234 18.3828 221.484 18.4766ZM232.617 41.1406L239.344 18.6406H246.586L236.391 47.8203C236.172 48.4609 235.875 49.1484 235.5 49.8828C235.141 50.6172 234.648 51.3125 234.023 51.9688C233.414 52.6406 232.641 53.1875 231.703 53.6094C230.781 54.0312 229.648 54.2422 228.305 54.2422C227.664 54.2422 227.141 54.2031 226.734 54.125C226.328 54.0469 225.844 53.9375 225.281 53.7969V48.8516C225.453 48.8516 225.633 48.8516 225.82 48.8516C226.008 48.8672 226.188 48.875 226.359 48.875C227.25 48.875 227.977 48.7734 228.539 48.5703C229.102 48.3672 229.555 48.0547 229.898 47.6328C230.242 47.2266 230.516 46.6953 230.719 46.0391L232.617 41.1406ZM229.805 18.6406L235.312 37.0156L236.273 44.1641L231.68 44.6562L222.562 18.6406H229.805Z" fill="#FFC042"/>
<path d="M256.734 9.875V44H249.703V9.875H256.734ZM270.328 24.4531V29.9375H254.812V24.4531H270.328ZM271.969 9.875V15.3828H254.812V9.875H271.969ZM283.523 9.875V44H276.516V9.875H283.523ZM304.664 9.875V44H297.656V9.875H304.664ZM315.164 9.875V15.3828H287.32V9.875H315.164Z" fill="#F7F5FA"/>
</svg>
